PathFileType	4	(X/Y/Z)	Patient4_TMGait_0pt3_03_right_24.trc.trc
DataRate	CameraRate	NumFrames	NumMarkers	Units	OrigDataRate	OrigDataStartFrame	OrigNumFrames
54.263565891473	54.263565891473	4	33	mm	54.263565891473	1	       141
Frame#	Time	Sacral			L.Shoulder			Chest			R.Shoulder			Neck			R.ASIS			L.ASIS			R.Thigh.Superior			R.Thigh.Lateral			R.Thigh.Inferior			R.Patella			L.Thigh.Superior			L.Thigh.Lateral			L.Thigh.Inferior			L.Patella			L.Shank.Superior			L.Shank.Lateral			L.Shank.Inferior			R.Shank.Superior			R.Shank.Lateral			R.Shank.Inferior			R.Heel			R.Midfoot.Superior			R.Midfoot.Lateral			R.Toe			L.Heel			L.Midfoot.Lateral			L.Midfoot.Superior			L.Toe			L.Elbow			L.Wrist			R.Elbow			R.Wrist			
		X1	Y1	Z1	X2	Y2	Z2	X3	Y3	Z3	X4	Y4	Z4	X5	Y5	Z5	X6	Y6	Z6	X7	Y7	Z7	X8	Y8	Z8	X9	Y9	Z9	X10	Y10	Z10	X11	Y11	Z11	X12	Y12	Z12	X13	Y13	Z13	X14	Y14	Z14	X15	Y15	Z15	X16	Y16	Z16	X17	Y17	Z17	X18	Y18	Z18	X19	Y19	Z19	X20	Y20	Z20	X21	Y21	Z21	X22	Y22	Z22	X23	Y23	Z23	X24	Y24	Z24	X25	Y25	Z25	X26	Y26	Z26	X27	Y27	Z27	X28	Y28	Z28	X29	Y29	Z29	X30	Y30	Z30	X31	Y31	Z31	X32	Y32	Z32	X33	Y33	Z33	

1	44.820000000000	690.879860154868	1008.526337131455	451.486817690411	905.736334120569	1421.877022781168	265.197880073829	994.210616229696	1351.133949887662	433.685851703055	907.808887602105	1433.511863244603	600.778439032143	877.100250883907	1488.727726745268	420.723172023107	909.714384243553	935.518860480628	578.512521394518	911.516606992387	951.447950197088	305.306127389652	960.034090290289	737.131698794512	559.307695531217	886.983103099144	630.001008131736	630.721832217512	968.244348189298	569.921952393723	556.678382531405	962.734944428190	461.790360144130	583.134214792758	968.359015045434	750.251283477592	349.199880758957	896.685398310503	625.143649791981	288.211139983411	982.944440991017	556.988722541940	361.821235715196	988.118000363480	482.947691013260	370.537575783985	952.835580299743	409.733873893745	362.389311115373	858.358532187961	302.200563415527	306.524921894655	891.845977420489	188.256871858377	380.903122560741	882.412170567750	397.537300348801	594.232144857442	761.584157272181	365.443203845918	658.969123953600	741.379960294457	255.000889878261	614.246404826264	537.238576572759	208.384344890135	591.598079658679	697.616831096944	130.878715402097	634.039448217114	589.713823771366	146.016437833287	667.017747213241	751.557417885657	29.437122582644	662.447859908237	749.213276356850	39.671831097757	415.067499202114	826.938622639370	36.394505128544	338.334588695740	910.279736139574	95.375909111885	369.737430682105	1038.924297820511	40.009699743183	345.923785424881	960.973278758725	1083.302895691135	129.548925618845	1114.875216090509	870.670886476559	131.129726198248	932.708369833462	1080.758905915345	716.677005244288	1085.122625818587	868.701088909359	737.627017445899	
2	44.838428571429	689.044176024860	1006.470426003392	448.143813615671	906.540187523768	1420.626714774825	264.739086424617	992.605365435318	1349.531460447681	434.222827602721	903.743530723886	1431.022896156136	600.519741948787	876.081756429542	1487.140654615307	420.307981815889	907.761171980293	934.882866465754	577.450769635600	911.471827998996	949.668856719942	304.033508808472	962.841549759329	739.482588984760	557.219446083956	893.544321248527	630.687983780175	628.777141006343	976.259888361009	572.794606059834	554.452604814064	972.936210542451	463.610467953008	581.321402629603	968.505328678819	748.663230237848	348.027623201051	897.063581433584	623.311688562373	287.509279479286	983.127936103026	555.418438769889	361.671292506359	988.228323209608	481.180756041236	370.787412015119	951.992968858342	407.746194891670	362.609199180885	856.422822784673	301.340358446971	306.423073912560	887.806620505540	187.173493476267	381.074726718006	891.544769390608	399.190195735088	592.185742090776	769.101751691746	369.590096980426	655.190482736148	748.028868407315	259.042886451494	611.385360704649	544.175963932502	216.279825340934	585.256436531941	702.216385014218	136.044124534648	631.687856183189	593.828738775601	153.496001818760	662.232826784887	752.547031767194	29.981421027261	662.705546754676	743.534347307549	39.637840965257	414.984403062377	821.272605115877	36.347720120703	338.260492323909	904.583216172110	95.225632857777	369.849006307844	1033.271578935862	39.930623751060	345.905625386859	968.158912297743	1084.578668742336	127.273512571795	1131.310435584788	879.925460502361	130.338175959320	913.762824245987	1077.787492083668	715.051239707735	1046.970576209624	856.649581604832	737.838307065605	
3	44.856857142857	687.242426925638	1004.592734853965	444.815258047538	907.350343833689	1419.551034485741	264.374004828603	990.952607639095	1348.148621605525	434.879338970618	899.530924890137	1428.745115770189	600.321121560883	874.995719602260	1485.730123922473	419.964404541657	905.730101132107	934.364935781710	576.469227160629	911.488422138593	948.070693204094	302.854612673856	965.536745132417	742.002165510623	555.252640232003	899.901438007134	631.561987006622	626.901504645575	984.101820247180	575.873817188200	552.346324217398	982.994594368363	465.699042042642	579.578990198798	968.547702785832	747.098740265377	346.849181857484	897.174507773424	621.589028728483	286.806157894110	982.975071056921	553.871435116675	361.493117748488	987.947796635860	479.486148463620	371.018167666148	950.801186269194	405.855464300452	362.801550993856	854.206066728192	300.520842264823	306.292718351708	883.573219226975	186.148525257463	381.222258302726	900.698773778826	400.971555431204	590.188065317728	776.688166011955	373.473181145664	651.457175111637	755.043024878046	262.744044880943	608.517124193567	551.395067427991	222.903540710129	579.037434783451	707.645221074880	140.841939687573	629.321171541415	598.675002489855	159.983839571227	657.539163758645	755.098830847335	30.650591743346	662.857841155272	737.729403758352	39.607660594764	414.893534730864	815.485581873730	36.299357239378	338.178740018021	898.767433949876	95.081197319813	369.941739510726	1027.495938922107	39.852886024961	345.885503015794	975.353939249876	1086.058618897118	125.096086993295	1147.827683243582	889.666229198727	129.695053631678	894.281718043437	1075.264978502933	713.407939999202	1008.143758343820	845.412927705449	737.850917510399	
4	44.875285714286	685.540207776406	1003.056177706547	441.611404629880	908.156435992195	1418.782597489523	264.171542661002	989.274678051791	1347.147416086183	435.709954282230	895.216572735223	1426.870818235237	600.220843635707	873.837822338894	1484.638713608048	419.742786654877	903.629716508897	934.059980948226	575.651314625346	911.590574219248	946.801369937619	301.872792477986	967.953351479341	744.699821555777	553.525732657484	905.730091992967	632.696007159599	625.199686535803	991.394830534156	579.157937144085	550.481777167025	992.494933193007	468.135729384349	578.005398353413	968.400331787082	745.620759818146	345.731069505440	896.850805456206	620.094159285080	286.131583260370	982.277205463447	552.411454304926	361.292038157787	987.037957162380	477.956967619476	371.222124317014	949.078344084623	404.177303957036	362.951268378824	851.597391315819	299.791959356873	306.126722660899	879.144354233034	185.246557103368	381.331458883279	909.597999437468	402.899080294853	588.346695805518	784.184957288726	376.810511238634	647.931543619125	762.484882685304	265.803337214196	605.762090265662	559.006563583373	227.327438952885	573.228760779272	714.291515107800	144.922367880642	627.028216384525	604.655911170198	164.731719359934	653.158177163789	760.073809741437	31.523697595199	662.880049278532	731.886770689576	39.584149713987	414.794047949148	809.667931260301	36.250693535931	338.089414736477	892.925076449939	94.950968593691	370.004675725980	1021.686831086017	39.780128006625	345.864076596624	982.371262934056	1087.828224759027	123.137576639873	1164.003951111703	899.914990714385	129.316240803085	874.560718247355	1073.535847476318	711.769165169488	969.443300014592	835.773561954724	737.557565913360	
